# xmcd CD database file
#
# Track frame offsets:
#	150
#	12416
#	51977
#	64206
#	77647
#	92589
#	102559
#	115887
#	149201
#	162724
#	176654
#	191234
#	205275
#	217309
#	229913
#	240843
#	255595
#
# Disc length: 3905 seconds
#
# Revision: 0
# Processed by: cddbd v1.5.2PL0 Copyright (c) Steve Scherf et al.
# Submitted via: CDex 1.51
#
DISCID=070f3f11
DTITLE=Erroll Garner - I'm Coming Virginia [CD2]
DYEAR=2004
DGENRE=Jazz
TTITLE0=Red Sails In The Sunset
TTITLE1=Geronimo, Part 1 and 2
TTITLE2=Georgia On My Mind
TTITLE3=Love Walked In
TTITLE4=Rabbin's Nest
TTITLE5=Lady Be Good
TTITLE6=Confession
TTITLE7=Red Cross
TTITLE8=Early In Paris
TTITLE9=September Song
TTITLE10=Lover Come Back To Me
TTITLE11=Gliss In The Dark
TTITLE12=I Never Knew
TTITLE13=Sloe Gin Fizz
TTITLE14=Don't Blame Me
TTITLE15=Full Moon And Empty Arms
TTITLE16=I Hear A Rhapsody, Part 1 and 2
EXTD=YEAR: 2004
EXTT0=
EXTT1=
EXTT2=
EXTT3=
EXTT4=
EXTT5=
EXTT6=
EXTT7=
EXTT8=
EXTT9=
EXTT10=
EXTT11=
EXTT12=
EXTT13=
EXTT14=
EXTT15=
EXTT16=
PLAYORDER=
